<svg xmlns="http://www.w3.org/2000/svg" xmlns:xlink="http://www.w3.org/1999/xlink" width="180.455" height="109.802" viewBox="0 0 180.455 109.802">
  <defs>
    <linearGradient id="linear-gradient" x1="0.5" x2="0.5" y2="1" gradientUnits="objectBoundingBox">
      <stop offset="0" stop-color="#e8f0fe"/>
      <stop offset="1" stop-color="#fafdff"/>
    </linearGradient>
  </defs>
  <g id="Group_10166" data-name="Group 10166" transform="translate(-1176 -1102.698)">
    <g id="Group_9726" data-name="Group 9726" transform="translate(202 86.909)">
      <path id="Path_39842" data-name="Path 39842" d="M-16023.7,4957.457l2.9-4.437a6.91,6.91,0,0,1,1.537-5.128c1.941-2.1,6.121-2.17,6.121-2.17a11.508,11.508,0,0,1,4.029-11.525,10.466,10.466,0,0,1,10.189-1.18,13.565,13.565,0,0,1,5.189,4.176s6.635-.857,9.875,2.114,3.729,7.97,3.729,7.97a7.7,7.7,0,0,1,6.211.615,5.943,5.943,0,0,1,2.666,5.128l5.537,4.437Z" transform="translate(17120.166 -3901.648)" fill="url(#linear-gradient)"/>
      <path id="Path_45046" data-name="Path 45046" d="M-16023.7,4957.457l2.9-4.437a6.91,6.91,0,0,1,1.537-5.128c1.941-2.1,6.121-2.17,6.121-2.17a11.508,11.508,0,0,1,4.029-11.525,10.466,10.466,0,0,1,10.189-1.18,13.565,13.565,0,0,1,5.189,4.176s6.635-.857,9.875,2.114,3.729,7.97,3.729,7.97a7.7,7.7,0,0,1,6.211.615,5.943,5.943,0,0,1,2.666,5.128l5.537,4.437Z" transform="translate(17026.621 -3916.427)" fill="url(#linear-gradient)"/>
      <g id="air-hot-balloon" transform="translate(1103.686 1062.029)">
        <g id="Group_6897" data-name="Group 6897" transform="translate(5.157 21.946)">
          <path id="Path_10140" data-name="Path 10140" d="M61.562,77.864a.164.164,0,0,1-.1-.031.171.171,0,0,1-.04-.235l2.556-3.675a.164.164,0,0,1,.231-.04c.075.054.135.062.082.138l-2.6,3.773A.165.165,0,0,1,61.562,77.864Z" transform="translate(-54.048 -73.851)" fill="#ea4335"/>
          <path id="Path_10141" data-name="Path 10141" d="M55.991,77.864a.165.165,0,0,1-.045-.006.169.169,0,0,1-.114-.208l1.019-3.675a.165.165,0,0,1,.2-.117c.088.025.17.012.145.1l-1.049,3.782A.166.166,0,0,1,55.991,77.864Z" transform="translate(-50.407 -73.851)" fill="#ea4335"/>
          <path id="Path_10142" data-name="Path 10142" d="M42.958,77.864a.164.164,0,0,0,.1-.031.171.171,0,0,0,.04-.235l-2.556-3.675a.164.164,0,0,0-.231-.04c-.075.054-.154.062-.1.138l2.617,3.773A.165.165,0,0,0,42.958,77.864Z" transform="translate(-40.187 -73.851)" fill="#ea4335"/>
          <path id="Path_10143" data-name="Path 10143" d="M51.474,77.864a.165.165,0,0,0,.045-.006.169.169,0,0,0,.114-.208l-1.019-3.675a.165.165,0,0,0-.2-.117c-.088.025-.164.029-.139.119l1.044,3.765A.166.166,0,0,0,51.474,77.864Z" transform="translate(-46.774 -73.851)" fill="#ea4335"/>
        </g>
        <path id="Path_10144" data-name="Path 10144" d="M45.874,85.281v3.782A1.141,1.141,0,0,0,47.015,90.2h4.041A1.141,1.141,0,0,0,52.2,89.063V85.281Z" transform="translate(-38.747 -59.375)" fill="#bbc0c6"/>
        <path id="Path_10145" data-name="Path 10145" d="M40.707,32.625c2.716-2.852,5.174-7.338,5.174-11.117,0-6.074-4.607-11-10.289-11S25.3,15.434,25.3,21.508c0,3.779,2.459,8.265,5.174,11.117Z" transform="translate(-25.303 -10.51)" fill="#ced1d6"/>
        <path id="Path_10146" data-name="Path 10146" d="M46.631,32.625A24.054,24.054,0,0,0,49.4,21.508c0-6.074-2.831-11-6.323-11s-6.323,4.924-6.323,11a24.054,24.054,0,0,0,2.765,11.117Z" transform="translate(-32.783 -10.51)" fill="#f7f8fa"/>
        <path id="Path_10147" data-name="Path 10147" d="M51.268,32.625A49.538,49.538,0,0,0,52.5,21.508c0-6.074-1.263-11-2.82-11s-2.82,4.924-2.82,11a49.538,49.538,0,0,0,1.233,11.117Z" transform="translate(-39.392 -10.51)" fill="#cfd0d4"/>
        <path id="Path_10148" data-name="Path 10148" d="M50.848,83.168H44.1a.616.616,0,1,0,0,1.232h6.748a.616.616,0,1,0,0-1.232Z" transform="translate(-37.185 -57.994)" fill="#ea4335"/>
      </g>
      <g id="air-hot-balloon-2" data-name="air-hot-balloon" transform="translate(1010.142 1047.25)">
        <g id="Group_6897-2" data-name="Group 6897" transform="translate(5.157 21.946)">
          <path id="Path_10140-2" data-name="Path 10140" d="M61.562,77.864a.164.164,0,0,1-.1-.031.171.171,0,0,1-.04-.235l2.556-3.675a.164.164,0,0,1,.231-.04c.075.054.135.062.082.138l-2.6,3.773A.165.165,0,0,1,61.562,77.864Z" transform="translate(-54.048 -73.851)" fill="#ea4335"/>
          <path id="Path_10141-2" data-name="Path 10141" d="M55.991,77.864a.165.165,0,0,1-.045-.006.169.169,0,0,1-.114-.208l1.019-3.675a.165.165,0,0,1,.2-.117c.088.025.17.012.145.1l-1.049,3.782A.166.166,0,0,1,55.991,77.864Z" transform="translate(-50.407 -73.851)" fill="#ea4335"/>
          <path id="Path_10142-2" data-name="Path 10142" d="M42.958,77.864a.164.164,0,0,0,.1-.031.171.171,0,0,0,.04-.235l-2.556-3.675a.164.164,0,0,0-.231-.04c-.075.054-.154.062-.1.138l2.617,3.773A.165.165,0,0,0,42.958,77.864Z" transform="translate(-40.187 -73.851)" fill="#ea4335"/>
          <path id="Path_10143-2" data-name="Path 10143" d="M51.474,77.864a.165.165,0,0,0,.045-.006.169.169,0,0,0,.114-.208l-1.019-3.675a.165.165,0,0,0-.2-.117c-.088.025-.164.029-.139.119l1.044,3.765A.166.166,0,0,0,51.474,77.864Z" transform="translate(-46.774 -73.851)" fill="#ea4335"/>
        </g>
        <path id="Path_10144-2" data-name="Path 10144" d="M45.874,85.281v3.782A1.141,1.141,0,0,0,47.015,90.2h4.041A1.141,1.141,0,0,0,52.2,89.063V85.281Z" transform="translate(-38.747 -59.375)" fill="#bbc0c6"/>
        <path id="Path_10145-2" data-name="Path 10145" d="M40.707,32.625c2.716-2.852,5.174-7.338,5.174-11.117,0-6.074-4.607-11-10.289-11S25.3,15.434,25.3,21.508c0,3.779,2.459,8.265,5.174,11.117Z" transform="translate(-25.303 -10.51)" fill="#ced1d6"/>
        <path id="Path_10146-2" data-name="Path 10146" d="M46.631,32.625A24.054,24.054,0,0,0,49.4,21.508c0-6.074-2.831-11-6.323-11s-6.323,4.924-6.323,11a24.054,24.054,0,0,0,2.765,11.117Z" transform="translate(-32.783 -10.51)" fill="#f7f8fa"/>
        <path id="Path_10147-2" data-name="Path 10147" d="M51.268,32.625A49.538,49.538,0,0,0,52.5,21.508c0-6.074-1.263-11-2.82-11s-2.82,4.924-2.82,11a49.538,49.538,0,0,0,1.233,11.117Z" transform="translate(-39.392 -10.51)" fill="#cfd0d4"/>
        <path id="Path_10148-2" data-name="Path 10148" d="M50.848,83.168H44.1a.616.616,0,1,0,0,1.232h6.748a.616.616,0,1,0,0-1.232Z" transform="translate(-37.185 -57.994)" fill="#ea4335"/>
      </g>
      <g id="air-hot-balloon-3" data-name="air-hot-balloon" transform="translate(1067.544 1094.762)">
        <g id="Group_6897-3" data-name="Group 6897" transform="translate(5.157 21.946)">
          <path id="Path_10140-3" data-name="Path 10140" d="M61.562,77.864a.164.164,0,0,1-.1-.031.171.171,0,0,1-.04-.235l2.556-3.675a.164.164,0,0,1,.231-.04c.075.054.135.062.082.138l-2.6,3.773A.165.165,0,0,1,61.562,77.864Z" transform="translate(-54.048 -73.851)" fill="#1a73e8"/>
          <path id="Path_10141-3" data-name="Path 10141" d="M55.991,77.864a.165.165,0,0,1-.045-.006.169.169,0,0,1-.114-.208l1.019-3.675a.165.165,0,0,1,.2-.117c.088.025.17.012.145.1l-1.049,3.782A.166.166,0,0,1,55.991,77.864Z" transform="translate(-50.407 -73.851)" fill="#1a73e8"/>
          <path id="Path_10142-3" data-name="Path 10142" d="M42.958,77.864a.164.164,0,0,0,.1-.031.171.171,0,0,0,.04-.235l-2.556-3.675a.164.164,0,0,0-.231-.04c-.075.054-.154.062-.1.138l2.617,3.773A.165.165,0,0,0,42.958,77.864Z" transform="translate(-40.187 -73.851)" fill="#1a73e8"/>
          <path id="Path_10143-3" data-name="Path 10143" d="M51.474,77.864a.165.165,0,0,0,.045-.006.169.169,0,0,0,.114-.208l-1.019-3.675a.165.165,0,0,0-.2-.117c-.088.025-.164.029-.139.119l1.044,3.765A.166.166,0,0,0,51.474,77.864Z" transform="translate(-46.774 -73.851)" fill="#1a73e8"/>
        </g>
        <path id="Path_10144-3" data-name="Path 10144" d="M45.874,85.281v3.782A1.141,1.141,0,0,0,47.015,90.2h4.041A1.141,1.141,0,0,0,52.2,89.063V85.281Z" transform="translate(-38.747 -59.375)" fill="#bbc0c6"/>
        <path id="Path_10145-3" data-name="Path 10145" d="M40.707,32.625c2.716-2.852,5.174-7.338,5.174-11.117,0-6.074-4.607-11-10.289-11S25.3,15.434,25.3,21.508c0,3.779,2.459,8.265,5.174,11.117Z" transform="translate(-25.303 -10.51)" fill="#ced1d6"/>
        <path id="Path_10146-3" data-name="Path 10146" d="M46.631,32.625A24.054,24.054,0,0,0,49.4,21.508c0-6.074-2.831-11-6.323-11s-6.323,4.924-6.323,11a24.054,24.054,0,0,0,2.765,11.117Z" transform="translate(-32.783 -10.51)" fill="#f7f8fa"/>
        <path id="Path_10147-3" data-name="Path 10147" d="M51.268,32.625A49.538,49.538,0,0,0,52.5,21.508c0-6.074-1.263-11-2.82-11s-2.82,4.924-2.82,11a49.538,49.538,0,0,0,1.233,11.117Z" transform="translate(-39.392 -10.51)" fill="#cfd0d4"/>
        <path id="Path_10148-3" data-name="Path 10148" d="M50.848,83.168H44.1a.616.616,0,1,0,0,1.232h6.748a.616.616,0,1,0,0-1.232Z" transform="translate(-37.185 -57.994)" fill="#1a73e8"/>
      </g>
      <g id="air-hot-balloon-4" data-name="air-hot-balloon" transform="translate(974 1079.982)">
        <g id="Group_6897-4" data-name="Group 6897" transform="translate(5.157 21.946)">
          <path id="Path_10140-4" data-name="Path 10140" d="M61.562,77.864a.164.164,0,0,1-.1-.031.171.171,0,0,1-.04-.235l2.556-3.675a.164.164,0,0,1,.231-.04c.075.054.135.062.082.138l-2.6,3.773A.165.165,0,0,1,61.562,77.864Z" transform="translate(-54.048 -73.851)" fill="#1a73e8"/>
          <path id="Path_10141-4" data-name="Path 10141" d="M55.991,77.864a.165.165,0,0,1-.045-.006.169.169,0,0,1-.114-.208l1.019-3.675a.165.165,0,0,1,.2-.117c.088.025.17.012.145.1l-1.049,3.782A.166.166,0,0,1,55.991,77.864Z" transform="translate(-50.407 -73.851)" fill="#1a73e8"/>
          <path id="Path_10142-4" data-name="Path 10142" d="M42.958,77.864a.164.164,0,0,0,.1-.031.171.171,0,0,0,.04-.235l-2.556-3.675a.164.164,0,0,0-.231-.04c-.075.054-.154.062-.1.138l2.617,3.773A.165.165,0,0,0,42.958,77.864Z" transform="translate(-40.187 -73.851)" fill="#1a73e8"/>
          <path id="Path_10143-4" data-name="Path 10143" d="M51.474,77.864a.165.165,0,0,0,.045-.006.169.169,0,0,0,.114-.208l-1.019-3.675a.165.165,0,0,0-.2-.117c-.088.025-.164.029-.139.119l1.044,3.765A.166.166,0,0,0,51.474,77.864Z" transform="translate(-46.774 -73.851)" fill="#1a73e8"/>
        </g>
        <path id="Path_10144-4" data-name="Path 10144" d="M45.874,85.281v3.782A1.141,1.141,0,0,0,47.015,90.2h4.041A1.141,1.141,0,0,0,52.2,89.063V85.281Z" transform="translate(-38.747 -59.375)" fill="#bbc0c6"/>
        <path id="Path_10145-4" data-name="Path 10145" d="M40.707,32.625c2.716-2.852,5.174-7.338,5.174-11.117,0-6.074-4.607-11-10.289-11S25.3,15.434,25.3,21.508c0,3.779,2.459,8.265,5.174,11.117Z" transform="translate(-25.303 -10.51)" fill="#ced1d6"/>
        <path id="Path_10146-4" data-name="Path 10146" d="M46.631,32.625A24.054,24.054,0,0,0,49.4,21.508c0-6.074-2.831-11-6.323-11s-6.323,4.924-6.323,11a24.054,24.054,0,0,0,2.765,11.117Z" transform="translate(-32.783 -10.51)" fill="#f7f8fa"/>
        <path id="Path_10147-4" data-name="Path 10147" d="M51.268,32.625A49.538,49.538,0,0,0,52.5,21.508c0-6.074-1.263-11-2.82-11s-2.82,4.924-2.82,11a49.538,49.538,0,0,0,1.233,11.117Z" transform="translate(-39.392 -10.51)" fill="#cfd0d4"/>
        <path id="Path_10148-4" data-name="Path 10148" d="M50.848,83.168H44.1a.616.616,0,1,0,0,1.232h6.748a.616.616,0,1,0,0-1.232Z" transform="translate(-37.185 -57.994)" fill="#1a73e8"/>
      </g>
    </g>
  </g>
</svg>
